<?xml version="1.0" encoding="utf-8"?>
<!-- Generator: Adobe Illustrator 27.0.0, SVG Export Plug-In . SVG Version: 6.00 Build 0)  -->
<svg version="1.1" xmlns="http://www.w3.org/2000/svg" xmlns:xlink="http://www.w3.org/1999/xlink" x="0px" y="0px"
	 viewBox="0 0 1080 1080" style="enable-background:new 0 0 1080 1080;" xml:space="preserve">
<style type="text/css">
	.st0{fill:#A8001F;}
	.st1{fill:#DD0031;}
	.st2{fill:#FF004D;}
	.st3{fill:#FFFFFF;}
</style>
<g id="Layer_1">
</g>
<g id="Layer_2">
	<path class="st0" d="M473.2,269.9H350.6c-6.4,0-12.1,4.2-13.9,10.4L184.3,791.9c-2.7,9.1,4.1,18.3,13.7,18.3h122.7
		c6.4,0,12.1-4.2,13.9-10.4l152.3-511.7C489.6,279,482.8,269.9,473.2,269.9z"/>
	<g>
		<path class="st2" d="M834.9,459.2H712.1c-9.5,0-16.3-9-13.7-18.1l46.9-160.7c1.8-6.2,7.5-10.5,14-10.5H882c9.5,0,16.3,9,13.7,18.1
			l-46.9,160.7C847,454.9,841.3,459.2,834.9,459.2z"/>
		<path class="st2" d="M593,791.8l86-283.9c1.8-6.1,7.5-10.3,13.9-10.3h122.6c9.6,0,16.4,9.1,13.6,18.3l-86,283.9
			c-1.8,6.1-7.5,10.3-13.9,10.3H606.7C597.1,810.1,590.3,801,593,791.8z"/>
	</g>
	<g>
		<g>
			<path class="st1" d="M449.5,620.8h122.7c9.5,0,16.3,9,13.7,18.1L539,799.7c-1.8,6.2-7.5,10.5-14,10.5H402.3
				c-9.5,0-16.3-9-13.7-18.1l46.9-160.7C437.3,625.1,443,620.8,449.5,620.8z"/>
			<path class="st1" d="M691.3,288.2l-86,283.9c-1.8,6.1-7.5,10.3-13.9,10.3H468.8c-9.6,0-16.4-9.1-13.6-18.3l86-283.9
				c1.8-6.1,7.5-10.3,13.9-10.3h122.6C687.2,269.9,694.1,279,691.3,288.2z"/>
		</g>
	</g>
</g>
</svg>
